<svg xmlns="http://www.w3.org/2000/svg" viewBox="50 50 80 60.662"><defs><style>.a{fill:#ffd176;}.b{fill:#e95263;}.c{fill:#42c3b7;}.d{fill:#1a6785;}</style></defs><path class="a" d="M241.3,265.7h40.089a2.12,2.12,0,0,0,1.5-3.617l-19-18.98Z" transform="translate(-153.516 -155.035)"/><path class="b" d="M37.8,224.539h-9a3.761,3.761,0,0,1-2.631-1.081L.642,197.917a2.12,2.12,0,0,1,1.5-3.617H7.564Z" transform="translate(49.981 -113.877)"/><path class="c" d="M48.3,30.432,78.555,60.687l29.362-29.362a3.6,3.6,0,0,0,0-5.074L82.736,1.07a3.6,3.6,0,0,0-5.074,0Z" transform="translate(9.261 49.975)"/><path class="d" d="M48.3,194.116,78.555,224.37l22.581-22.581L94.559,195.2a3.746,3.746,0,0,0-2.646-1.1Z" transform="translate(9.261 -113.708)"/></svg>