<svg xmlns="http://www.w3.org/2000/svg" viewBox="13992 -1637.244 80.5 78.444"><defs><style>.a{fill:#fff;stroke:#fff;}.a,.b{stroke-miterlimit:10;}.b{fill:none;stroke:#231f20;}</style></defs><g transform="translate(13992 -1637.2)"><path d="M60.4,16.3,30.1,47.7,0,16.3V48.6L30.2,78.4,60.4,48.3Z"/><path d="M62.1,14.7,31.8,46,1.7,14.7V46.9L31.9,76.7,62.1,46.6Z"/><path d="M63.7,13,33.5,44.3,3.4,13V45.3L33.5,75,63.7,44.9Z"/><path d="M65.4,11.3,35.2,42.6,5,11.3V43.6L35.2,73.3l30.2-30Z"/><path d="M67.1,9.6,36.8,41,6.7,9.6V41.9L36.9,71.6l30.2-30Z"/><path d="M68.8,7.9,38.5,39.3,8.4,7.9V40.2L38.6,70,68.8,39.9Z"/><path d="M70.4,6.3,40.2,37.6,10.1,6.3V38.5L40.3,68.3,70.4,38.2Z"/><path d="M72.1,4.6,41.9,35.9,11.7,4.6V36.9L41.9,66.6,72.1,36.5Z"/><path d="M73.8,2.9,43.5,34.2,13.4,2.9V35.2L43.6,64.9l30.2-30Z"/><path d="M75.5,1.2,45.2,32.6,15.1,1.2V33.5L45.3,63.3,75.5,33.2Z"/><path class="a" d="M75.5,1.2,45.2,32.6,15.1,1.2V33.5L45.3,63.3,75.5,33.2Z"/><path class="b" d="M80,1.2,49.7,32.6,19.6,1.2V33.5L49.8,63.3,80,33.2Z"/></g></svg>