<svg xmlns="http://www.w3.org/2000/svg" viewBox="0 0 1200 392.97"><defs><style>.cls-1{fill:#ffd176;stroke:#ffd176;}.cls-1,.cls-2{stroke-miterlimit:10;}.cls-2{fill:#fff;stroke:#fff;}</style></defs><title>Asset 5</title><g id="Layer_2" data-name="Layer 2"><g id="Layer_1-2" data-name="Layer 1"><path d="M151.35,189.11v39.52H109.94V371.81H62.84V228.63H21.43V189.11Z"/><path d="M311.58,371.81h-47.1V299.27H219.83v72.54h-47.1V189.11h47.1v69.83h44.65V189.11h47.1Z"/><path d="M396.84,371.81H350V189.11h46.83Z"/><path d="M478.57,271.39V371.81h-43.3V189.11h43.3L533.25,289.8V189.11h43.3v182.7H531.89Z"/><path d="M712.69,371.81,677,302l-14.89,24.09v45.74H615V189.11h47.1v76.06l47.36-76.06H762l-52.78,79.31,55,103.39Z"/><path d="M828.53,371.81H781.71V189.11h46.82Z"/><path d="M910.27,271.39V371.81H867V189.11h43.3L964.94,289.8V189.11h43.31v182.7H963.59Z"/><path d="M1110.83,259.76h82.82v38.7h-15.16V351a20.51,20.51,0,0,1-20.84,20.84h-91.48A20.74,20.74,0,0,1,1045.06,351V209.68c0-11.09,9.47-20.57,21.11-20.57h113.14v39.25h-84.72a3,3,0,0,0-2.71,3v98a2.72,2.72,0,0,0,2.71,2.71h37.89c1.9,0,3-1.08,3-2.71V298.46h-24.63Z"/><path d="M56.13,142.79h-35V6.35h35Z"/><path d="M117.17,65.57v77.22H84.83V6.35h35.58L147.9,70,173.16,6.35h37.2V142.79H177.21V64.16l-23.05,54.17H140.42Z"/><path d="M303.94,79.32v-41c0-2.43-2-4-4.85-4H277.26a4.11,4.11,0,0,0-4.25,4v41Zm35.17,63.47H303.94v-34H273v34H237.84V22.32c0-9.5,6.47-16,16-16h69.33c9.5,0,16,6.47,16,16Z"/><path d="M414.5,59.11h61.86V88H465v39.21a15.32,15.32,0,0,1-15.57,15.57H381.15a15.48,15.48,0,0,1-15.76-15.57V21.71A15.7,15.7,0,0,1,381.15,6.35h84.49V35.66H402.38a2.21,2.21,0,0,0-2,2.22v73.17a2,2,0,0,0,2,2h28.3a2,2,0,0,0,2.22-2V88H414.5Z"/><path d="M533.76,142.79h-35V6.35h35Z"/><path d="M594.8,67.8v75H562.46V6.35H594.8l40.83,75.19V6.35H668V142.79H634.62Z"/><path d="M761.56,79.32v-41c0-2.43-2-4-4.86-4H734.87a4.1,4.1,0,0,0-4.24,4v41Zm35.17,63.47H761.56v-34H730.63v34H695.46V22.32c0-9.5,6.47-16,16-16h69.33c9.5,0,16,6.47,16,16Z"/><path d="M908.5,6.35V35.86H877.58V142.79H842.41V35.86H811.48V6.35Z"/><path d="M959.44,142.79h-35V6.35h35Z"/><path d="M1089,6.35l-40.63,136.44h-33.95L974.8,6.35h37.59l19,86.71,22.84-86.71Z"/><path d="M1104.36,6.35h89.14V35.66h-54.17V59.51h46.9V88.62h-46.9v24.66h54.17v29.51h-89.14Z"/><polygon points="149 191.47 149 230.98 107.59 230.98 107.59 374.16 60.49 374.16 60.49 230.98 19.08 230.98 19.08 191.47 149 191.47"/><polygon points="309.23 374.16 262.13 374.16 262.13 301.62 217.47 301.62 217.47 374.16 170.38 374.16 170.38 191.47 217.47 191.47 217.47 261.3 262.13 261.3 262.13 191.47 309.23 191.47 309.23 374.16"/><rect x="347.66" y="191.47" width="46.82" height="182.69"/><polygon points="476.22 273.75 476.22 374.16 432.92 374.16 432.92 191.47 476.22 191.47 530.89 292.15 530.89 191.47 574.2 191.47 574.2 374.16 529.54 374.16 476.22 273.75"/><polygon points="710.34 374.16 674.61 304.33 659.73 328.42 659.73 374.16 612.63 374.16 612.63 191.47 659.73 191.47 659.73 267.52 707.09 191.47 759.6 191.47 706.82 270.77 761.77 374.16 710.34 374.16"/><rect x="779.36" y="191.47" width="46.82" height="182.69"/><polygon points="907.92 273.75 907.92 374.16 864.61 374.16 864.61 191.47 907.92 191.47 962.59 292.15 962.59 191.47 1005.9 191.47 1005.9 374.16 961.24 374.16 907.92 273.75"/><path d="M1108.48,262.11h82.82v38.7h-15.16v52.51a20.51,20.51,0,0,1-20.84,20.84h-91.48a20.74,20.74,0,0,1-21.11-20.84V212c0-11.1,9.47-20.57,21.11-20.57H1177v39.24h-84.71a3,3,0,0,0-2.71,3v98a2.71,2.71,0,0,0,2.71,2.7h37.89c1.9,0,3-1.08,3-2.7V300.81h-24.63Z"/><rect x="18.81" y="8.7" width="34.97" height="136.44"/><polygon points="114.82 67.92 114.82 145.14 82.48 145.14 82.48 8.7 118.06 8.7 145.55 72.37 170.81 8.7 208 8.7 208 145.14 174.85 145.14 174.85 66.51 151.81 120.68 138.07 120.68 114.82 67.92"/><path d="M301.59,81.67v-41c0-2.43-2-4-4.85-4H274.91a4.1,4.1,0,0,0-4.25,4v41Zm35.17,63.47H301.59v-34H270.66v34H235.49V24.67c0-9.5,6.47-16,16-16h69.33c9.5,0,16,6.47,16,16Z"/><path d="M412.15,61.46H474v28.9H462.69v39.22a15.32,15.32,0,0,1-15.57,15.56H378.8A15.49,15.49,0,0,1,363,129.58V24.06A15.71,15.71,0,0,1,378.8,8.7h84.49V38H400a2.21,2.21,0,0,0-2,2.22v73.18a2,2,0,0,0,2,2h28.29a2,2,0,0,0,2.23-2v-23h-18.4Z"/><rect x="496.44" y="8.7" width="34.97" height="136.44"/><polygon points="592.45 70.15 592.45 145.14 560.11 145.14 560.11 8.7 592.45 8.7 633.28 83.89 633.28 8.7 665.62 8.7 665.62 145.14 632.27 145.14 592.45 70.15"/><path d="M759.2,81.67v-41c0-2.43-2-4-4.85-4H732.52a4.1,4.1,0,0,0-4.24,4v41Zm35.18,63.47H759.2v-34H728.28v34H693.11V24.67c0-9.5,6.47-16,16-16h69.33c9.5,0,16,6.47,16,16Z"/><polygon points="906.15 8.7 906.15 38.21 875.23 38.21 875.23 145.14 840.06 145.14 840.06 38.21 809.13 38.21 809.13 8.7 906.15 8.7"/><rect x="922.12" y="8.7" width="34.97" height="136.44"/><polygon points="1086.65 8.7 1046.02 145.14 1012.07 145.14 972.45 8.7 1010.04 8.7 1029.04 95.42 1051.88 8.7 1086.65 8.7"/><polygon points="1102.01 8.7 1191.15 8.7 1191.15 38.01 1136.98 38.01 1136.98 61.86 1183.88 61.86 1183.88 90.97 1136.98 90.97 1136.98 115.63 1191.15 115.63 1191.15 145.14 1102.01 145.14 1102.01 8.7"/><polygon points="146.65 193.82 146.65 233.33 105.23 233.33 105.23 376.51 58.14 376.51 58.14 233.33 16.73 233.33 16.73 193.82 146.65 193.82"/><polygon points="306.88 376.51 259.78 376.51 259.78 303.98 215.12 303.98 215.12 376.51 168.03 376.51 168.03 193.82 215.12 193.82 215.12 263.65 259.78 263.65 259.78 193.82 306.88 193.82 306.88 376.51"/><rect x="345.31" y="193.82" width="46.82" height="182.69"/><polygon points="473.87 276.1 473.87 376.51 430.56 376.51 430.56 193.82 473.87 193.82 528.54 294.5 528.54 193.82 571.85 193.82 571.85 376.51 527.19 376.51 473.87 276.1"/><polygon points="707.99 376.51 672.26 306.68 657.38 330.77 657.38 376.51 610.28 376.51 610.28 193.82 657.38 193.82 657.38 269.87 704.74 193.82 757.25 193.82 704.47 273.12 759.41 376.51 707.99 376.51"/><rect x="777.01" y="193.82" width="46.82" height="182.69"/><polygon points="905.57 276.1 905.57 376.51 862.26 376.51 862.26 193.82 905.57 193.82 960.24 294.5 960.24 193.82 1003.55 193.82 1003.55 376.51 958.89 376.51 905.57 276.1"/><path d="M1106.13,264.46H1189v38.7h-15.16v52.51A20.51,20.51,0,0,1,1153,376.51h-91.48a20.74,20.74,0,0,1-21.11-20.84V214.39c0-11.1,9.47-20.57,21.11-20.57H1174.6v39.24h-84.71a3,3,0,0,0-2.71,3v98a2.72,2.72,0,0,0,2.71,2.71h37.89c1.89,0,3-1.09,3-2.71V303.16h-24.63Z"/><rect x="16.46" y="11.05" width="34.97" height="136.44"/><polygon points="112.47 70.28 112.47 147.49 80.13 147.49 80.13 11.05 115.7 11.05 143.19 74.72 168.46 11.05 205.65 11.05 205.65 147.49 172.5 147.49 172.5 68.86 149.46 123.03 135.72 123.03 112.47 70.28"/><path d="M299.24,84V43c0-2.43-2-4-4.85-4H272.56a4.1,4.1,0,0,0-4.25,4V84Zm35.17,63.47H299.24v-34H268.31v34H233.14V27c0-9.5,6.47-16,16-16h69.33c9.5,0,16,6.47,16,16Z"/><path d="M409.8,63.81h61.85v28.9H460.33v39.22a15.32,15.32,0,0,1-15.56,15.56H376.45a15.49,15.49,0,0,1-15.77-15.56V26.41a15.71,15.71,0,0,1,15.77-15.36h84.49V40.36H397.67a2.21,2.21,0,0,0-2,2.23v73.17a2,2,0,0,0,2,2H426a2,2,0,0,0,2.23-2V92.71H409.8Z"/><rect x="494.09" y="11.05" width="34.97" height="136.44"/><polygon points="590.1 72.5 590.1 147.49 557.76 147.49 557.76 11.05 590.1 11.05 630.93 86.25 630.93 11.05 663.27 11.05 663.27 147.49 629.92 147.49 590.1 72.5"/><path d="M756.85,84V43c0-2.43-2-4-4.85-4H730.17a4.1,4.1,0,0,0-4.24,4V84ZM792,147.49H756.85v-34H725.93v34H690.76V27c0-9.5,6.46-16,16-16h69.34c9.5,0,16,6.47,16,16Z"/><polygon points="903.8 11.05 903.8 40.56 872.88 40.56 872.88 147.49 837.7 147.49 837.7 40.56 806.78 40.56 806.78 11.05 903.8 11.05"/><rect x="919.77" y="11.05" width="34.97" height="136.44"/><polygon points="1084.3 11.05 1043.67 147.49 1009.71 147.49 970.1 11.05 1007.69 11.05 1026.69 97.77 1049.53 11.05 1084.3 11.05"/><polygon points="1099.66 11.05 1188.8 11.05 1188.8 40.36 1134.63 40.36 1134.63 64.21 1181.52 64.21 1181.52 93.32 1134.63 93.32 1134.63 117.98 1188.8 117.98 1188.8 147.49 1099.66 147.49 1099.66 11.05"/><polygon points="144.29 196.17 144.29 235.68 102.88 235.68 102.88 378.86 55.79 378.86 55.79 235.68 14.38 235.68 14.38 196.17 144.29 196.17"/><polygon points="304.52 378.86 257.43 378.86 257.43 306.33 212.77 306.33 212.77 378.86 165.68 378.86 165.68 196.17 212.77 196.17 212.77 266 257.43 266 257.43 196.17 304.52 196.17 304.52 378.86"/><rect x="342.96" y="196.17" width="46.82" height="182.69"/><polygon points="471.52 278.45 471.52 378.86 428.21 378.86 428.21 196.17 471.52 196.17 526.19 296.85 526.19 196.17 569.5 196.17 569.5 378.86 524.84 378.86 471.52 278.45"/><polygon points="705.64 378.86 669.91 309.03 655.02 333.12 655.02 378.86 607.93 378.86 607.93 196.17 655.02 196.17 655.02 272.22 702.39 196.17 754.9 196.17 702.12 275.47 757.06 378.86 705.64 378.86"/><rect x="774.65" y="196.17" width="46.82" height="182.69"/><polygon points="903.22 278.45 903.22 378.86 859.91 378.86 859.91 196.17 903.22 196.17 957.89 296.85 957.89 196.17 1001.2 196.17 1001.2 378.86 956.54 378.86 903.22 278.45"/><path d="M1103.77,266.81h82.83v38.7h-15.16V358a20.51,20.51,0,0,1-20.84,20.84h-91.48A20.74,20.74,0,0,1,1038,358V216.74c0-11.1,9.48-20.57,21.12-20.57h113.13v39.24h-84.72a3,3,0,0,0-2.7,3v98a2.71,2.71,0,0,0,2.7,2.71h37.9c1.89,0,3-1.09,3-2.71V305.51h-24.63Z"/><rect x="14.11" y="13.4" width="34.97" height="136.44"/><polygon points="110.12 72.63 110.12 149.84 77.78 149.84 77.78 13.4 113.35 13.4 140.84 77.08 166.11 13.4 203.3 13.4 203.3 149.84 170.15 149.84 170.15 71.21 147.11 125.39 133.36 125.39 110.12 72.63"/><path d="M296.88,86.37v-41c0-2.42-2-4-4.85-4H270.2a4.1,4.1,0,0,0-4.24,4v41Zm35.18,63.47H296.88v-34H266v34H230.79V29.37c0-9.5,6.47-16,16-16h69.33c9.5,0,16,6.47,16,16Z"/><path d="M407.45,66.16H469.3V95.07H458v39.21a15.32,15.32,0,0,1-15.56,15.56H374.1a15.49,15.49,0,0,1-15.77-15.56V28.77A15.72,15.72,0,0,1,374.1,13.4h84.49V42.71H395.32a2.21,2.21,0,0,0-2,2.23v73.17a2,2,0,0,0,2,2h28.3a2,2,0,0,0,2.22-2v-23H407.45Z"/><rect x="491.74" y="13.4" width="34.97" height="136.44"/><polygon points="587.75 74.85 587.75 149.84 555.4 149.84 555.4 13.4 587.75 13.4 628.58 88.6 628.58 13.4 660.92 13.4 660.92 149.84 627.57 149.84 587.75 74.85"/><path d="M754.5,86.37v-41c0-2.42-2-4-4.85-4H727.82a4.1,4.1,0,0,0-4.24,4v41Zm35.17,63.47H754.5v-34H723.58v34H688.4V29.37c0-9.5,6.47-16,16-16H773.7c9.5,0,16,6.47,16,16Z"/><polygon points="901.45 13.4 901.45 42.92 870.52 42.92 870.52 149.84 835.35 149.84 835.35 42.92 804.43 42.92 804.43 13.4 901.45 13.4"/><rect x="917.42" y="13.4" width="34.97" height="136.44"/><polygon points="1081.95 13.4 1041.32 149.84 1007.36 149.84 967.74 13.4 1005.34 13.4 1024.34 100.12 1047.18 13.4 1081.95 13.4"/><polygon points="1097.31 13.4 1186.45 13.4 1186.45 42.71 1132.28 42.71 1132.28 66.56 1179.17 66.56 1179.17 95.67 1132.28 95.67 1132.28 120.33 1186.45 120.33 1186.45 149.84 1097.31 149.84 1097.31 13.4"/><polygon points="141.94 198.52 141.94 238.04 100.53 238.04 100.53 381.21 53.44 381.21 53.44 238.04 12.03 238.04 12.03 198.52 141.94 198.52"/><polygon points="302.17 381.21 255.08 381.21 255.08 308.68 210.42 308.68 210.42 381.21 163.32 381.21 163.32 198.52 210.42 198.52 210.42 268.35 255.08 268.35 255.08 198.52 302.17 198.52 302.17 381.21"/><rect x="340.6" y="198.52" width="46.82" height="182.69"/><polygon points="469.17 280.8 469.17 381.21 425.86 381.21 425.86 198.52 469.17 198.52 523.84 299.2 523.84 198.52 567.14 198.52 567.14 381.21 522.49 381.21 469.17 280.8"/><polygon points="703.29 381.21 667.56 311.38 652.67 335.47 652.67 381.21 605.58 381.21 605.58 198.52 652.67 198.52 652.67 274.58 700.04 198.52 752.55 198.52 699.77 277.82 754.71 381.21 703.29 381.21"/><rect x="772.3" y="198.52" width="46.82" height="182.69"/><polygon points="900.87 280.8 900.87 381.21 857.56 381.21 857.56 198.52 900.87 198.52 955.54 299.2 955.54 198.52 998.84 198.52 998.84 381.21 954.18 381.21 900.87 280.8"/><path d="M1101.42,269.16h82.82v38.71h-15.15v52.5a20.52,20.52,0,0,1-20.84,20.85h-91.49a20.75,20.75,0,0,1-21.11-20.85V219.09c0-11.1,9.48-20.57,21.11-20.57H1169.9v39.25h-84.72a3,3,0,0,0-2.7,3v98a2.71,2.71,0,0,0,2.7,2.71h37.9c1.89,0,3-1.08,3-2.71V307.87h-24.63Z"/><rect x="11.76" y="15.76" width="34.97" height="136.44"/><polygon points="107.77 74.98 107.77 152.19 75.43 152.19 75.43 15.76 111 15.76 138.49 79.43 163.76 15.76 200.95 15.76 200.95 152.19 167.8 152.19 167.8 73.56 144.76 127.74 131.01 127.74 107.77 74.98"/><path d="M294.53,88.73v-41c0-2.42-2-4-4.85-4H267.85a4.1,4.1,0,0,0-4.24,4v41Zm35.17,63.46H294.53V118.24H263.61v34H228.44V31.72c0-9.5,6.46-16,16-16h69.34c9.5,0,16,6.46,16,16Z"/><path d="M405.1,68.51H467V97.42H455.63v39.21a15.32,15.32,0,0,1-15.56,15.56H371.75A15.48,15.48,0,0,1,356,136.63V31.12a15.7,15.7,0,0,1,15.77-15.36h84.49V45.07H393a2.21,2.21,0,0,0-2,2.22v73.17a2,2,0,0,0,2,2h28.3a2,2,0,0,0,2.22-2v-23H405.1Z"/><rect x="489.38" y="15.76" width="34.97" height="136.44"/><polygon points="585.39 77.2 585.39 152.19 553.05 152.19 553.05 15.76 585.39 15.76 626.23 90.95 626.23 15.76 658.57 15.76 658.57 152.19 625.21 152.19 585.39 77.2"/><path d="M752.15,88.73v-41c0-2.42-2-4-4.85-4H725.47a4.1,4.1,0,0,0-4.25,4v41Zm35.17,63.46H752.15V118.24H721.22v34H686.05V31.72c0-9.5,6.47-16,16-16h69.33c9.5,0,16,6.46,16,16Z"/><polygon points="899.1 15.76 899.1 45.27 868.17 45.27 868.17 152.19 833 152.19 833 45.27 802.08 45.27 802.08 15.76 899.1 15.76"/><rect x="915.06" y="15.76" width="34.97" height="136.44"/><polygon points="1079.6 15.76 1038.97 152.19 1005.01 152.19 965.39 15.76 1002.99 15.76 1021.99 102.47 1044.83 15.76 1079.6 15.76"/><polygon points="1094.96 15.76 1184.1 15.76 1184.1 45.06 1129.93 45.06 1129.93 68.92 1176.82 68.92 1176.82 98.02 1129.93 98.02 1129.93 122.68 1184.1 122.68 1184.1 152.19 1094.96 152.19 1094.96 15.76"/><polygon points="139.59 200.87 139.59 240.39 98.18 240.39 98.18 383.57 51.09 383.57 51.09 240.39 9.68 240.39 9.68 200.87 139.59 200.87"/><polygon points="299.82 383.57 252.73 383.57 252.73 311.03 208.07 311.03 208.07 383.57 160.97 383.57 160.97 200.87 208.07 200.87 208.07 270.7 252.73 270.7 252.73 200.87 299.82 200.87 299.82 383.57"/><rect x="338.25" y="200.87" width="46.82" height="182.69"/><polygon points="466.81 283.15 466.81 383.57 423.51 383.57 423.51 200.87 466.81 200.87 521.49 301.56 521.49 200.87 564.79 200.87 564.79 383.57 520.13 383.57 466.81 283.15"/><polygon points="700.93 383.57 665.21 313.74 650.32 337.83 650.32 383.57 603.23 383.57 603.23 200.87 650.32 200.87 650.32 276.93 697.69 200.87 750.2 200.87 697.42 280.18 752.36 383.57 700.93 383.57"/><rect x="769.95" y="200.87" width="46.82" height="182.69"/><polygon points="898.51 283.15 898.51 383.57 855.21 383.57 855.21 200.87 898.51 200.87 953.19 301.56 953.19 200.87 996.49 200.87 996.49 383.57 951.83 383.57 898.51 283.15"/><path d="M1099.07,271.51h82.82v38.71h-15.15v52.51a20.52,20.52,0,0,1-20.84,20.84h-91.49a20.74,20.74,0,0,1-21.11-20.84V221.44c0-11.09,9.47-20.57,21.11-20.57h113.14v39.25h-84.72a3,3,0,0,0-2.71,3v98a2.72,2.72,0,0,0,2.71,2.71h37.89c1.9,0,3-1.08,3-2.71V310.22h-24.63Z"/><rect x="9.41" y="18.11" width="34.97" height="136.44"/><polygon points="105.42 77.33 105.42 154.55 73.08 154.55 73.08 18.11 108.65 18.11 136.14 81.78 161.41 18.11 198.6 18.11 198.6 154.55 165.45 154.55 165.45 75.92 142.41 130.09 128.66 130.09 105.42 77.33"/><path d="M292.18,91.08V50c0-2.42-2-4-4.85-4H265.5a4.1,4.1,0,0,0-4.24,4v41Zm35.17,63.47H292.18v-34H261.26v34H226.08V34.08c0-9.5,6.47-16,16-16h69.33c9.5,0,16,6.47,16,16Z"/><path d="M402.75,70.86H464.6V99.77H453.28V139a15.32,15.32,0,0,1-15.57,15.57H369.4A15.49,15.49,0,0,1,353.63,139V33.47A15.7,15.7,0,0,1,369.4,18.11h84.49V47.42H390.62a2.21,2.21,0,0,0-2,2.22v73.17a2,2,0,0,0,2,2h28.3a2,2,0,0,0,2.22-2v-23H402.75Z"/><rect x="487.03" y="18.11" width="34.97" height="136.44"/><polygon points="583.04 79.56 583.04 154.55 550.7 154.55 550.7 18.11 583.04 18.11 623.87 93.3 623.87 18.11 656.21 18.11 656.21 154.55 622.86 154.55 583.04 79.56"/><path d="M749.8,91.08V50c0-2.42-2-4-4.85-4H723.12a4.1,4.1,0,0,0-4.25,4v41ZM785,154.55H749.8v-34H718.87v34H683.7V34.08c0-9.5,6.47-16,16-16H769c9.5,0,16,6.47,16,16Z"/><polygon points="896.75 18.11 896.75 47.62 865.82 47.62 865.82 154.55 830.65 154.55 830.65 47.62 799.72 47.62 799.72 18.11 896.75 18.11"/><rect x="912.71" y="18.11" width="34.97" height="136.44"/><polygon points="1077.24 18.11 1036.62 154.55 1002.66 154.55 963.04 18.11 1000.64 18.11 1019.64 104.82 1042.48 18.11 1077.24 18.11"/><polygon points="1092.61 18.11 1181.75 18.11 1181.75 47.42 1127.58 47.42 1127.58 71.27 1174.47 71.27 1174.47 100.38 1127.58 100.38 1127.58 125.03 1181.75 125.03 1181.75 154.55 1092.61 154.55 1092.61 18.11"/><polygon points="137.24 203.22 137.24 242.74 95.83 242.74 95.83 385.92 48.73 385.92 48.73 242.74 7.32 242.74 7.32 203.22 137.24 203.22"/><polygon points="297.47 385.92 250.38 385.92 250.38 313.38 205.72 313.38 205.72 385.92 158.62 385.92 158.62 203.22 205.72 203.22 205.72 273.05 250.38 273.05 250.38 203.22 297.47 203.22 297.47 385.92"/><rect x="335.9" y="203.22" width="46.82" height="182.69"/><polygon points="464.46 285.5 464.46 385.92 421.16 385.92 421.16 203.22 464.46 203.22 519.14 303.91 519.14 203.22 562.44 203.22 562.44 385.92 517.78 385.92 464.46 285.5"/><polygon points="698.58 385.92 662.86 316.09 647.97 340.18 647.97 385.92 600.88 385.92 600.88 203.22 647.97 203.22 647.97 279.28 695.34 203.22 747.84 203.22 695.06 282.53 750.01 385.92 698.58 385.92"/><rect x="767.6" y="203.22" width="46.82" height="182.69"/><polygon points="896.16 285.5 896.16 385.92 852.86 385.92 852.86 203.22 896.16 203.22 950.84 303.91 950.84 203.22 994.14 203.22 994.14 385.92 949.48 385.92 896.16 285.5"/><path d="M1096.72,273.87h82.82v38.7h-15.16v52.51a20.51,20.51,0,0,1-20.84,20.84h-91.48A20.74,20.74,0,0,1,1031,365.08V223.79c0-11.09,9.47-20.57,21.11-20.57H1165.2v39.25h-84.72a3,3,0,0,0-2.71,3v98a2.72,2.72,0,0,0,2.71,2.71h37.89c1.9,0,3-1.08,3-2.71V312.57h-24.63Z"/><rect x="7.05" y="20.46" width="34.97" height="136.44"/><polygon points="103.06 79.68 103.06 156.9 70.72 156.9 70.72 20.46 106.3 20.46 133.79 84.13 159.05 20.46 196.25 20.46 196.25 156.9 163.1 156.9 163.1 78.27 140.05 132.44 126.31 132.44 103.06 79.68"/><path d="M289.83,93.43v-41c0-2.43-2-4-4.85-4H263.15a4.11,4.11,0,0,0-4.25,4v41ZM325,156.9H289.83v-34H258.9v34H223.73V36.43c0-9.5,6.47-16,16-16H309c9.5,0,16,6.47,16,16Z"/><path d="M400.39,73.22h61.86v28.9H450.93v39.21a15.32,15.32,0,0,1-15.57,15.57H367a15.48,15.48,0,0,1-15.76-15.57V35.82A15.7,15.7,0,0,1,367,20.46h84.49V49.77H388.27a2.21,2.21,0,0,0-2,2.22v73.17a2,2,0,0,0,2,2h28.3a2,2,0,0,0,2.22-2v-23h-18.4Z"/><rect x="484.68" y="20.46" width="34.97" height="136.44"/><polygon points="580.69 81.91 580.69 156.9 548.35 156.9 548.35 20.46 580.69 20.46 621.52 95.65 621.52 20.46 653.86 20.46 653.86 156.9 620.51 156.9 580.69 81.91"/><path d="M747.45,93.43v-41c0-2.43-2-4-4.85-4H720.77a4.11,4.11,0,0,0-4.25,4v41Zm35.17,63.47H747.45v-34H716.52v34H681.35V36.43c0-9.5,6.47-16,16-16h69.33c9.5,0,16,6.47,16,16Z"/><polygon points="894.39 20.46 894.39 49.97 863.47 49.97 863.47 156.9 828.3 156.9 828.3 49.97 797.37 49.97 797.37 20.46 894.39 20.46"/><rect x="910.36" y="20.46" width="34.97" height="136.44"/><polygon points="1074.89 20.46 1034.27 156.9 1000.31 156.9 960.69 20.46 998.28 20.46 1017.29 107.17 1040.13 20.46 1074.89 20.46"/><polygon points="1090.25 20.46 1179.39 20.46 1179.39 49.77 1125.22 49.77 1125.22 73.62 1172.12 73.62 1172.12 102.73 1125.22 102.73 1125.22 127.39 1179.39 127.39 1179.39 156.9 1090.25 156.9 1090.25 20.46"/><polygon points="134.89 205.57 134.89 245.09 93.48 245.09 93.48 388.27 46.38 388.27 46.38 245.09 4.97 245.09 4.97 205.57 134.89 205.57"/><polygon points="295.12 388.27 248.02 388.27 248.02 315.73 203.37 315.73 203.37 388.27 156.27 388.27 156.27 205.57 203.37 205.57 203.37 275.4 248.02 275.4 248.02 205.57 295.12 205.57 295.12 388.27"/><rect x="333.55" y="205.58" width="46.82" height="182.69"/><polygon points="462.11 287.86 462.11 388.27 418.81 388.27 418.81 205.57 462.11 205.57 516.78 306.26 516.78 205.57 560.09 205.57 560.09 388.27 515.43 388.27 462.11 287.86"/><polygon points="696.23 388.27 660.5 318.44 645.62 342.53 645.62 388.27 598.52 388.27 598.52 205.57 645.62 205.57 645.62 281.63 692.98 205.57 745.49 205.57 692.71 284.88 747.66 388.27 696.23 388.27"/><rect x="765.25" y="205.58" width="46.82" height="182.69"/><polygon points="893.81 287.86 893.81 388.27 850.5 388.27 850.5 205.57 893.81 205.57 948.48 306.26 948.48 205.57 991.79 205.57 991.79 388.27 947.13 388.27 893.81 287.86"/><path d="M1094.37,276.22h82.82v38.7H1162v52.51a20.51,20.51,0,0,1-20.84,20.84h-91.48a20.74,20.74,0,0,1-21.11-20.84V226.15c0-11.1,9.47-20.57,21.11-20.57h113.13v39.24h-84.71a3,3,0,0,0-2.71,3v98a2.71,2.71,0,0,0,2.71,2.7H1116c1.9,0,3-1.08,3-2.7V314.92h-24.63Z"/><rect x="4.7" y="22.81" width="34.97" height="136.44"/><polygon points="100.71 82.03 100.71 159.25 68.37 159.25 68.37 22.81 103.95 22.81 131.44 86.48 156.7 22.81 193.9 22.81 193.9 159.25 160.75 159.25 160.75 80.62 137.7 134.79 123.96 134.79 100.71 82.03"/><path d="M287.48,95.78v-41c0-2.43-2-4-4.85-4H260.8a4.11,4.11,0,0,0-4.25,4v41Zm35.17,63.47H287.48v-34H256.55v34H221.38V38.78c0-9.5,6.47-16,16-16h69.33c9.5,0,16,6.47,16,16Z"/><path d="M398,75.57H459.9v28.9H448.58v39.22A15.32,15.32,0,0,1,433,159.25H364.69a15.48,15.48,0,0,1-15.76-15.56V38.17a15.71,15.71,0,0,1,15.76-15.36h84.49V52.12H385.92a2.21,2.21,0,0,0-2,2.22v73.17a2,2,0,0,0,2,2h28.29a2,2,0,0,0,2.23-2v-23H398Z"/><rect x="482.33" y="22.81" width="34.97" height="136.44"/><polygon points="578.34 84.26 578.34 159.25 546 159.25 546 22.81 578.34 22.81 619.17 98 619.17 22.81 651.51 22.81 651.51 159.25 618.16 159.25 578.34 84.26"/><path d="M745.09,95.78v-41c0-2.43-2-4-4.85-4H718.41a4.1,4.1,0,0,0-4.24,4v41Zm35.18,63.47H745.09v-34H714.17v34H679V38.78c0-9.5,6.47-16,16-16H764.3c9.5,0,16,6.47,16,16Z"/><polygon points="892.04 22.81 892.04 52.32 861.12 52.32 861.12 159.25 825.95 159.25 825.95 52.32 795.02 52.32 795.02 22.81 892.04 22.81"/><rect x="908.01" y="22.81" width="34.97" height="136.44"/><polygon points="1072.54 22.81 1031.91 159.25 997.96 159.25 958.34 22.81 995.93 22.81 1014.93 109.53 1037.78 22.81 1072.54 22.81"/><polygon points="1087.9 22.81 1177.04 22.81 1177.04 52.12 1122.87 52.12 1122.87 75.97 1169.77 75.97 1169.77 105.08 1122.87 105.08 1122.87 129.74 1177.04 129.74 1177.04 159.25 1087.9 159.25 1087.9 22.81"/><polygon points="132.54 207.93 132.54 247.44 91.13 247.44 91.13 390.62 44.03 390.62 44.03 247.44 2.62 247.44 2.62 207.93 132.54 207.93"/><polygon points="292.77 390.62 245.67 390.62 245.67 318.08 201.01 318.08 201.01 390.62 153.92 390.62 153.92 207.93 201.01 207.93 201.01 277.76 245.67 277.76 245.67 207.93 292.77 207.93 292.77 390.62"/><rect x="331.2" y="207.93" width="46.82" height="182.69"/><polygon points="459.76 290.21 459.76 390.62 416.45 390.62 416.45 207.93 459.76 207.93 514.43 308.61 514.43 207.93 557.74 207.93 557.74 390.62 513.08 390.62 459.76 290.21"/><polygon points="693.88 390.62 658.15 320.79 643.27 344.88 643.27 390.62 596.17 390.62 596.17 207.93 643.27 207.93 643.27 283.98 690.63 207.93 743.14 207.93 690.36 287.23 745.3 390.62 693.88 390.62"/><rect x="762.9" y="207.93" width="46.82" height="182.69"/><polygon points="891.46 290.21 891.46 390.62 848.15 390.62 848.15 207.93 891.46 207.93 946.13 308.61 946.13 207.93 989.44 207.93 989.44 390.62 944.78 390.62 891.46 290.21"/><path d="M1092,278.57h82.82v38.7h-15.16v52.51a20.51,20.51,0,0,1-20.84,20.84h-91.48a20.74,20.74,0,0,1-21.11-20.84V228.5c0-11.1,9.47-20.57,21.11-20.57h113.13v39.24h-84.71a3,3,0,0,0-2.71,3v98a2.72,2.72,0,0,0,2.71,2.71h37.89c1.89,0,3-1.09,3-2.71V317.27H1092Z"/><rect x="2.35" y="25.16" width="34.97" height="136.44"/><polygon points="98.36 84.39 98.36 161.6 66.02 161.6 66.02 25.16 101.59 25.16 129.09 88.83 154.35 25.16 191.54 25.16 191.54 161.6 158.39 161.6 158.39 82.97 135.35 137.14 121.61 137.14 98.36 84.39"/><path d="M285.13,98.13v-41c0-2.43-2-4-4.85-4H258.45a4.1,4.1,0,0,0-4.25,4v41ZM320.3,161.6H285.13v-34H254.2v34H219V41.13c0-9.5,6.47-16,16-16h69.33c9.5,0,16,6.47,16,16Z"/><path d="M395.69,77.92h61.85v28.9H446.22V146a15.32,15.32,0,0,1-15.56,15.56H362.34A15.49,15.49,0,0,1,346.57,146V40.52a15.71,15.71,0,0,1,15.77-15.36h84.49V54.47H383.56a2.21,2.21,0,0,0-2,2.22v73.18a2,2,0,0,0,2,2h28.3a2,2,0,0,0,2.23-2V106.82h-18.4Z"/><rect x="479.98" y="25.16" width="34.97" height="136.44"/><polygon points="575.99 86.61 575.99 161.6 543.65 161.6 543.65 25.16 575.99 25.16 616.82 100.36 616.82 25.16 649.16 25.16 649.16 161.6 615.81 161.6 575.99 86.61"/><path d="M742.74,98.13v-41c0-2.43-2-4-4.85-4H716.06a4.1,4.1,0,0,0-4.24,4v41Zm35.17,63.47H742.74v-34H711.82v34H676.65V41.13c0-9.5,6.46-16,16-16H762c9.5,0,16,6.47,16,16Z"/><polygon points="889.69 25.16 889.69 54.67 858.77 54.67 858.77 161.6 823.6 161.6 823.6 54.67 792.67 54.67 792.67 25.16 889.69 25.16"/><rect x="905.66" y="25.16" width="34.97" height="136.44"/><polygon points="1070.19 25.16 1029.56 161.6 995.6 161.6 955.99 25.16 993.58 25.16 1012.58 111.88 1035.42 25.16 1070.19 25.16"/><polygon points="1085.55 25.16 1174.69 25.16 1174.69 54.47 1120.52 54.47 1120.52 78.32 1167.41 78.32 1167.41 107.43 1120.52 107.43 1120.52 132.09 1174.69 132.09 1174.69 161.6 1085.55 161.6 1085.55 25.16"/><path d="M130.19,210.28v39.51H88.77V393H41.68V249.79H.27V210.28Z"/><path d="M290.42,393h-47.1V320.44H198.66V393H151.57V210.28h47.09v69.83h44.66V210.28h47.1Z"/><path d="M375.67,393H328.85V210.28h46.82Z"/><path d="M457.41,292.56V393H414.1V210.28h43.31L512.08,311V210.28h43.31V393H510.73Z"/><path d="M691.53,393,655.8,323.14l-14.88,24.09V393h-47.1V210.28h47.1v76l47.36-76h52.51L688,289.58,743,393Z"/><path d="M807.37,393H760.55V210.28h46.82Z"/><path d="M889.11,292.56V393H845.8V210.28h43.31L943.78,311V210.28h43.31V393H942.43Z"/><path d="M1089.66,280.92h82.83v38.7h-15.16v52.51A20.51,20.51,0,0,1,1136.49,393H1045a20.74,20.74,0,0,1-21.12-20.84V230.85c0-11.1,9.48-20.57,21.12-20.57h113.13v39.24h-84.72a3,3,0,0,0-2.7,3v98a2.71,2.71,0,0,0,2.7,2.71h37.9c1.89,0,3-1.09,3-2.71V319.62h-24.63Z"/><path d="M35,164H0V27.51H35Z"/><path d="M96,86.74V164H63.67V27.51H99.24l27.49,63.68L152,27.51h37.19V164H156V85.32l-23,54.17H119.25Z"/><path d="M282.77,100.48v-41c0-2.42-2-4-4.85-4H256.09a4.1,4.1,0,0,0-4.24,4v41ZM318,164H282.77V130H251.85v34H216.68V43.48c0-9.5,6.47-16,16-16H302c9.5,0,16,6.47,16,16Z"/><path d="M393.34,80.27h61.85v28.9H443.87v39.22A15.32,15.32,0,0,1,428.31,164H360a15.49,15.49,0,0,1-15.77-15.56V42.88A15.72,15.72,0,0,1,360,27.51h84.49V56.82H381.21a2.21,2.21,0,0,0-2,2.23v73.17a2,2,0,0,0,2,2h28.3a2,2,0,0,0,2.22-2v-23H393.34Z"/><path d="M512.6,164h-35V27.51h35Z"/><path d="M573.64,89v75H541.3V27.51h32.34l40.83,75.2V27.51h32.34V164H613.46Z"/><path d="M740.39,100.48v-41c0-2.42-2-4-4.85-4H713.71a4.1,4.1,0,0,0-4.24,4v41ZM775.56,164H740.39V130H709.47v34H674.29V43.48c0-9.5,6.47-16,16-16h69.33c9.5,0,16,6.47,16,16Z"/><path d="M887.34,27.51V57H856.41V164H821.24V57H790.32V27.51Z"/><path d="M938.27,164h-35V27.51h35Z"/><path d="M1067.84,27.51,1027.21,164h-34L953.63,27.51h37.6l19,86.72,22.84-86.72Z"/><path d="M1083.2,27.51h89.14V56.82h-54.17V80.67h46.89v29.11h-46.89v24.66h54.17V164H1083.2Z"/><path class="cls-1" d="M151.35,189.11v39.52H109.94V371.81H62.84V228.63H21.43V189.11Z"/><path class="cls-1" d="M311.58,371.81h-47.1V299.27H219.83v72.54h-47.1V189.11h47.1v69.83h44.65V189.11h47.1Z"/><path class="cls-1" d="M396.84,371.81H350V189.11h46.83Z"/><path class="cls-1" d="M478.57,271.39V371.81h-43.3V189.11h43.3L533.25,289.8V189.11h43.3v182.7H531.89Z"/><path class="cls-1" d="M712.69,371.81,677,302l-14.89,24.09v45.74H615V189.11h47.1v76.06l47.36-76.06H762l-52.78,79.31,55,103.39Z"/><path class="cls-1" d="M828.53,371.81H781.71V189.11h46.82Z"/><path class="cls-1" d="M910.27,271.39V371.81H867V189.11h43.3L964.94,289.8V189.11h43.31v182.7H963.59Z"/><path class="cls-1" d="M1110.83,259.76h82.82v38.7h-15.16V351a20.51,20.51,0,0,1-20.84,20.84h-91.48A20.74,20.74,0,0,1,1045.06,351V209.68c0-11.09,9.47-20.57,21.11-20.57h113.14v39.25h-84.72a3,3,0,0,0-2.71,3v98a2.72,2.72,0,0,0,2.71,2.71h37.89c1.9,0,3-1.08,3-2.71V298.46h-24.63Z"/><path class="cls-2" d="M56.13,142.79h-35V6.35h35Z"/><path class="cls-2" d="M117.17,65.57v77.22H84.83V6.35h35.58L147.9,70,173.16,6.35h37.2V142.79H177.21V64.16l-23.05,54.17H140.42Z"/><path class="cls-2" d="M339.11,142.79H303.94v-34H273v34H237.84V22.32c0-9.5,6.47-16,16-16h69.33c9.5,0,16,6.47,16,16ZM303.94,79.32v-41c0-2.43-2-4-4.85-4H277.26a4.11,4.11,0,0,0-4.25,4v41Z"/><path class="cls-2" d="M414.5,59.11h61.86V88H465v39.21a15.32,15.32,0,0,1-15.57,15.57H381.15a15.48,15.48,0,0,1-15.76-15.57V21.71A15.7,15.7,0,0,1,381.15,6.35h84.49V35.66H402.38a2.21,2.21,0,0,0-2,2.22v73.17a2,2,0,0,0,2,2h28.3a2,2,0,0,0,2.22-2V88H414.5Z"/><path class="cls-2" d="M533.76,142.79h-35V6.35h35Z"/><path class="cls-2" d="M594.8,67.8v75H562.46V6.35H594.8l40.83,75.19V6.35H668V142.79H634.62Z"/><path class="cls-2" d="M796.73,142.79H761.56v-34H730.63v34H695.46V22.32c0-9.5,6.47-16,16-16h69.33c9.5,0,16,6.47,16,16ZM761.56,79.32v-41c0-2.43-2-4-4.86-4H734.87a4.1,4.1,0,0,0-4.24,4v41Z"/><path class="cls-2" d="M908.5,6.35V35.86H877.58V142.79H842.41V35.86H811.48V6.35Z"/><path class="cls-2" d="M959.44,142.79h-35V6.35h35Z"/><path class="cls-2" d="M1089,6.35l-40.63,136.44h-33.95L974.8,6.35h37.59l19,86.71,22.84-86.71Z"/><path class="cls-2" d="M1104.36,6.35h89.14V35.66h-54.17V59.51h46.9V88.62h-46.9v24.66h54.17v29.51h-89.14Z"/><path d="M156.64,183.82v37.4H115.23V364.4h-45V221.22H28.84v-37.4h127.8m1.06-1.06H27.78v39.52H69.19V365.46h47.1V222.28H157.7V182.76Z"/><path d="M316.87,183.82V364.4h-45V291.86H225.12V364.4h-45V183.82h45v69.83h46.77V183.82h45m1.06-1.06h-47.1v69.83H226.18V182.76h-47.1v182.7h47.1V292.92h44.65v72.54h47.1V182.76Z"/><path d="M402.13,183.82V364.4H357.42V183.82h44.71m1.06-1.06H356.36v182.7h46.83V182.76Z"/><path d="M581.84,183.82V364.4h-43l-53-99.85-2-3.75V364.4H442.68V183.82h41.61L538.67,284l2,3.67V183.82h41.19m1.06-1.06H539.6V283.45L484.92,182.76h-43.3v182.7h43.3V265.05l53.32,100.41H582.9V182.76Z"/><path d="M766.33,183.82l-51.69,77.66-.35.53.3.55L768.71,364.4h-49l-35.43-69.25-.86-1.67-1,1.59-14.89,24.09-.16.26v45h-45V183.82h45v78.7l2-3.14,47-75.56h50m2-1.06H715.79l-47.36,76.06V182.76h-47.1v182.7h47.1V319.72l14.89-24.09L719,365.46h51.43l-55-103.39,52.78-79.31Z"/><path d="M833.82,183.82V364.4h-44.7V183.82h44.7m1.06-1.06H788.06v182.7h46.82V182.76Z"/><path d="M1013.54,183.82V364.4h-43l-53-99.85-2-3.75V364.4H874.37V183.82H916L970.36,284l2,3.67V183.82h41.19m1.06-1.06H971.29V283.45L916.62,182.76h-43.3v182.7h43.3V265.05l53.32,100.41h44.66V182.76Z"/><path d="M1184.6,183.82V221h-83.66a4,4,0,0,0-3.77,4v98a3.78,3.78,0,0,0,3.77,3.76h37.89a3.7,3.7,0,0,0,4-3.76V291.05h-24.63V254.47h80.7v36.58h-15.16v53.57A19.34,19.34,0,0,1,1164,364.4h-91.48a19.7,19.7,0,0,1-20-19.78V203.33c0-10.57,9.18-19.51,20-19.51H1184.6m1.06-1.06H1072.52c-11.64,0-21.11,9.48-21.11,20.57V344.62a20.74,20.74,0,0,0,21.11,20.84H1164a20.51,20.51,0,0,0,20.84-20.84V292.11H1200v-38.7h-82.82v38.7h24.63V323c0,1.62-1.08,2.7-3,2.7h-37.89a2.71,2.71,0,0,1-2.71-2.7V225a3,3,0,0,1,2.71-3h84.72V182.76Z"/><path d="M61.42,1.06V135.38H28.57V1.06H61.42M62.48,0h-35V136.44h35V0Z"/><path d="M215.65,1.06V135.38h-31V52.62l-2,4.78-22.77,53.52H147.46l-23-52.12-2-4.6v81.18H92.24V1.06h33.82l27.22,63,1,2.35.94-2.38,25-63h35.42M216.71,0h-37.2L154.25,63.67,126.76,0H91.18V136.44h32.34V59.22L146.77,112h13.74l23.05-54.17v78.63h33.15V0Z"/><path d="M329.49,1.06c8.92,0,14.91,6,14.91,14.91V135.38h-33v-34h-33v34H245.25V16c0-8.92,6-14.91,14.91-14.91h69.33M278.31,74h33V31.94c0-3-2.43-5.1-5.91-5.1H283.61a5.14,5.14,0,0,0-5.3,5.1V74M329.49,0H260.16c-9.5,0-16,6.47-16,16V136.44h35.17v-34h30.93v34h35.17V16c0-9.5-6.47-16-16-16ZM279.36,73v-41a4.11,4.11,0,0,1,4.25-4.05h21.83c2.83,0,4.85,1.62,4.85,4.05V73Z"/><path d="M470.94,1.06V28.25H408.73a3.27,3.27,0,0,0-3.08,3.28V104.7a3.08,3.08,0,0,0,3.08,3.08H437a3,3,0,0,0,3.29-3.08V80.6h-18.4V53.81h59.74V80.6H470.33v40.27a14.19,14.19,0,0,1-14.51,14.51H387.5a14.46,14.46,0,0,1-14.71-14.51V15.36c0-7.75,6.74-14.3,14.71-14.3h83.44M472,0H387.5a15.7,15.7,0,0,0-15.76,15.36V120.87a15.48,15.48,0,0,0,15.76,15.57h68.32a15.33,15.33,0,0,0,15.57-15.57V81.66h11.32V52.76H420.85v28.9h18.4v23a2,2,0,0,1-2.23,2H408.73a2,2,0,0,1-2-2V31.53a2.22,2.22,0,0,1,2-2.22H472V0Z"/><path d="M539.05,1.06V135.38H506.2V1.06h32.85M540.11,0h-35V136.44h35V0Z"/><path d="M673.26,1.06V135.38H641.61L602.08,61l-2-3.75v78.18H569.87V1.06h30.65L641.05,75.7l2,3.66V1.06h30.22M674.32,0H642V75.19L601.15,0H568.81V136.44h32.34v-75l39.82,75h33.35V0Z"/><path d="M787.11,1.06C796,1.06,802,7.05,802,16V135.38H769v-34h-33v34h-33V16c0-8.92,6-14.91,14.91-14.91h69.33M735.92,74h33V31.94c0-3-2.43-5.1-5.91-5.1H741.22a5.15,5.15,0,0,0-5.3,5.1V74M787.11,0H717.78c-9.5,0-16,6.47-16,16V136.44H737v-34h30.93v34h35.17V16c0-9.5-6.47-16-16-16ZM737,73v-41a4.1,4.1,0,0,1,4.24-4.05h21.83c2.83,0,4.86,1.62,4.86,4.05V73Z"/><path d="M913.8,1.06V28.45H882.87V135.38h-33V28.45H818.89V1.06H913.8M914.85,0h-97V29.51h30.93V136.44h35.17V29.51h30.92V0Z"/><path d="M964.73,1.06V135.38H931.88V1.06h32.85M965.79,0h-35V136.44h35V0Z"/><path d="M1093.93,1.06l-40,134.32h-32.37l-39-134.32h35.33l18.82,85.88.94,4.29,1.12-4.25L1061.4,1.06h32.53M1095.35,0h-34.76l-22.85,86.71L1018.74,0H981.15l39.62,136.44h34L1095.35,0Z"/><path d="M1198.8,1.06V28.25h-54.18v26h46.9v27h-46.9V108h54.18v27.39h-87V1.06h87m1-1.06h-89.14V136.44h89.14V106.93h-54.17V82.27h46.9V53.16h-46.9V29.31h54.17V0Z"/></g></g></svg>